<svg width="512" height="512" viewBox="0 0 512 512" fill="none" xmlns="http://www.w3.org/2000/svg">
  <defs>
    <linearGradient id="jGradient" x1="256" y1="108" x2="256" y2="404" gradientUnits="userSpaceOnUse">
      <stop offset="0" stop-color="#53C8CF"/>
      <stop offset="1" stop-color="#20AEDA"/>
    </linearGradient>
  </defs>
  <circle cx="256" cy="256" r="212" stroke="#273C89" stroke-width="24"/>
  <path d="M236 150C236 141.163 243.163 134 252 134H298C334.451 134 364 163.549 364 200V290C364 349.647 315.647 398 256 398C196.353 398 148 349.647 148 290C148 281.163 155.163 274 164 274H200V290C200 320.928 225.072 346 256 346C286.928 346 312 320.928 312 290V200C312 192.268 305.732 186 298 186H288V254C288 282.719 264.719 306 236 306C207.281 306 184 282.719 184 254V238H236V150Z" fill="url(#jGradient)"/>
  <path d="M219 364C198.094 352.44 182.145 332.972 176 310H148C154.953 347.523 181.143 378.444 216 392.5C246.046 404.617 281.865 402.717 311 387.5C274.935 392.671 242.824 382.584 219 364Z" fill="#1E88CF"/>
</svg>
